<svg width="593.19541015625px" height="122px" xmlns="http://www.w3.org/2000/svg" viewBox="-46.59770507812499 14 593.19541015625 122" style="background:#596886" preserveAspectRatio="xMidYMid"><defs><filter id="editing-hover" x="-100%" y="-100%" width="300%" height="300%"><feFlood flood-color="#052b4a" result="flood"></feFlood><feComposite operator="in" in2="SourceAlpha" in="flood" result="shadow"></feComposite><feOffset dx="10.9" dy="-4" in="SourceGraphic" result="offset-1"></feOffset><feOffset dx="-10.9" dy="4" in="shadow" result="offset-2"></feOffset><feMerge><feMergeNode in="offset-2"></feMergeNode><feMergeNode in="offset-1"></feMergeNode></feMerge></filter></defs><g filter="url(#editing-hover)"><g transform="translate(39.14751508831978, 99)"><path d="M26.11-42.69L26.11-42.69L26.11-42.69Q41.79-42.69 41.79-31.62L41.79-31.62L41.79-31.62Q41.79-25.54 37.89-21.89L37.89-21.89L37.89-21.89Q34.05-18.24 27.33-18.24L27.33-18.24L27.33-18.24Q24.19-18.24 21.76-20.03L21.76-20.03L21.76-20.03Q20.61-20.80 19.84-21.82L19.84-21.82L19.84-21.82Q24.51-21.82 26.98-24.67L26.98-24.67L26.98-24.67Q29.44-27.52 29.44-33.09L29.44-33.09L29.44-33.09Q29.44-38.66 23.94-38.66L23.94-38.66L22.40-38.66L22.40-38.66Q22.02-38.66 21.70-38.59L21.70-38.59L14.34 0L0.45 0L8.32-41.92L8.32-41.92Q15.17-42.56 19.14-42.62L19.14-42.62L19.14-42.62Q23.10-42.69 26.11-42.69ZM57.47-3.52L57.47-3.52L57.47-3.52Q55.49 1.28 49.15 1.28L49.15 1.28L49.15 1.28Q45.89 1.28 43.84-0.96L43.84-0.96L43.84-0.96Q42.11-2.94 42.11-4.93L42.11-4.93L42.11-4.93Q42.11-10.11 44.48-20.22L44.48-20.22L46.85-32.64L59.84-33.92L55.94-13.70L55.94-13.70Q54.85-8.96 54.85-7.30L54.85-7.30L54.85-7.30Q54.85-3.65 57.47-3.52ZM48-41.54L48-41.54L48-41.54Q48-44.03 50.08-45.38L50.08-45.38L50.08-45.38Q52.16-46.72 55.17-46.72L55.17-46.72L55.17-46.72Q58.18-46.72 60-45.38L60-45.38L60-45.38Q61.82-44.03 61.82-41.54L61.82-41.54L61.82-41.54Q61.82-39.04 59.81-37.76L59.81-37.76L59.81-37.76Q57.79-36.48 54.78-36.48L54.78-36.48L54.78-36.48Q51.78-36.48 49.89-37.76L49.89-37.76L49.89-37.76Q48-39.04 48-41.54ZM78.21-3.52L78.21-3.52L78.21-3.52Q76.22 1.28 69.89 1.28L69.89 1.28L69.89 1.28Q66.69 1.28 64.64-0.96L64.64-0.96L64.64-0.96Q62.98-2.82 62.98-4.93L62.98-4.93L62.98-4.93Q62.98-9.73 65.22-20.22L65.22-20.22L69.89-44.80L82.88-46.08L76.67-13.70L76.67-13.70Q75.58-8.96 75.58-7.30L75.58-7.30L75.58-7.30Q75.58-3.65 78.21-3.52ZM98.94-3.52L98.94-3.52L98.94-3.52Q96.96 1.28 90.62 1.28L90.62 1.28L90.62 1.28Q87.42 1.28 85.38-0.96L85.38-0.96L85.38-0.96Q83.71-2.82 83.71-4.93L83.71-4.93L83.71-4.93Q83.71-9.73 85.95-20.22L85.95-20.22L90.62-44.80L103.62-46.08L97.41-13.70L97.41-13.70Q96.32-8.96 96.32-7.30L96.32-7.30L96.32-7.30Q96.32-3.65 98.94-3.52ZM130.69 0L116.99 0L124.80-42.05L124.80-42.05Q131.14-42.75 140.38-42.75L140.38-42.75L140.38-42.75Q149.63-42.75 153.92-40.06L153.92-40.06L153.92-40.06Q158.21-37.38 158.21-31.97L158.21-31.97L158.21-31.97Q158.21-26.56 155.42-23.17L155.42-23.17L155.42-23.17Q152.64-19.78 147.84-18.69L147.84-18.69L147.84-18.69Q148.93-13.38 151.42-9.09L151.42-9.09L151.42-9.09Q153.73-5.06 156.42-3.78L156.42-3.78L156.42-3.78Q155.46-1.09 153.50 0.10L153.50 0.10L153.50 0.10Q151.55 1.28 148.77 1.28L148.77 1.28L148.77 1.28Q145.98 1.28 143.81-0.35L143.81-0.35L143.81-0.35Q141.63-1.98 139.90-4.99L139.90-4.99L139.90-4.99Q136.26-11.52 135.87-21.82L135.87-21.82L136.32-21.82L136.32-21.82Q141.06-21.95 143.42-24.42L143.42-24.42L143.42-24.42Q145.79-26.88 145.79-32.06L145.79-32.06L145.79-32.06Q145.79-38.53 140.35-38.78L140.35-38.78L138.94-38.78L138.94-38.78Q138.37-38.78 138.05-38.72L138.05-38.72L130.69 0ZM187.07-10.82L187.07-10.82L187.07-10.82Q188.67-9.73 188.67-7.33L188.67-7.33L188.67-7.33Q188.67-4.93 187.46-3.39L187.46-3.39L187.46-3.39Q186.24-1.86 184.26-0.83L184.26-0.83L184.26-0.83Q180.16 1.28 175.74 1.28L175.74 1.28L175.74 1.28Q171.33 1.28 168.74 0.32L168.74 0.32L168.74 0.32Q166.14-0.64 164.42-2.43L164.42-2.43L164.42-2.43Q161.02-5.82 161.02-12.03L161.02-12.03L161.02-12.03Q161.02-21.70 166.27-27.58L166.27-27.58L166.27-27.58Q171.90-33.92 181.70-33.92L181.70-33.92L181.70-33.92Q187.78-33.92 190.78-31.36L190.78-31.36L190.78-31.36Q193.02-29.44 193.02-26.30L193.02-26.30L193.02-26.30Q193.02-15.04 173.57-15.04L173.57-15.04L173.57-15.04Q173.31-13.38 173.31-11.97L173.31-11.97L173.31-11.97Q173.31-9.02 174.62-7.90L174.62-7.90L174.62-7.90Q175.94-6.78 178.37-6.78L178.37-6.78L178.37-6.78Q180.80-6.78 183.39-7.90L183.39-7.90L183.39-7.90Q185.98-9.02 187.07-10.82ZM174.02-17.79L174.02-17.79L174.02-17.79Q178.56-17.79 181.18-20.61L181.18-20.61L181.18-20.61Q183.81-23.30 183.81-27.58L183.81-27.58L183.81-27.58Q183.81-29.06 183.26-29.86L183.26-29.86L183.26-29.86Q182.72-30.66 181.63-30.66L181.63-30.66L181.63-30.66Q180.54-30.66 179.62-30.24L179.62-30.24L179.62-30.24Q178.69-29.82 177.73-28.42L177.73-28.42L177.73-28.42Q175.36-25.22 174.02-17.79ZM241.28 1.28L241.28 1.28L241.28 1.28Q233.54 1.28 233.54-4.74L233.54-4.74L233.54-4.74Q233.54-7.36 234.66-12.45L234.66-12.45L234.66-12.45Q235.78-17.54 236.16-19.58L236.16-19.58L236.16-19.58Q237.06-24.26 237.06-25.73L237.06-25.73L237.06-25.73Q237.06-28.99 234.62-28.99L234.62-28.99L234.62-28.99Q233.02-28.99 231.49-26.78L231.49-26.78L231.49-26.78Q229.95-24.58 229.25-20.16L229.25-20.16L225.28 0L212.80 1.28L216.26-16.13L216.26-16.13Q216.83-19.01 217.34-22.27L217.34-22.27L217.34-22.27Q217.86-25.54 217.86-26.05L217.86-26.05L217.86-26.05Q217.86-28.99 215.68-28.99L215.68-28.99L215.68-28.99Q214.21-28.99 212.61-26.82L212.61-26.82L212.61-26.82Q211.01-24.64 210.11-20.16L210.11-20.16L206.21 0L193.60 1.28L200.32-32.64L210.75-33.92L209.66-27.46L209.66-27.46Q211.33-30.91 214.40-32.42L214.40-32.42L214.40-32.42Q217.47-33.92 222.27-33.92L222.27-33.92L222.27-33.92Q225.02-33.92 226.82-32.58L226.82-32.58L226.82-32.58Q228.61-31.23 229.18-29.06L229.18-29.06L229.18-29.06Q230.27-31.30 233.06-32.61L233.06-32.61L233.06-32.61Q235.84-33.92 239.26-33.92L239.26-33.92L239.26-33.92Q242.69-33.92 244.38-33.18L244.38-33.18L244.38-33.18Q246.08-32.45 247.10-31.23L247.10-31.23L247.10-31.23Q248.83-28.99 248.83-24.90L248.83-24.90L248.83-24.90Q248.83-20.86 247.10-12.48L247.10-12.48L247.10-12.48Q246.21-8.38 246.21-6.88L246.21-6.88L246.21-6.88Q246.21-5.38 247.07-4.48L247.07-4.48L247.07-4.48Q247.94-3.58 249.22-3.46L249.22-3.46L249.22-3.46Q248.58-1.28 246.37 0L246.37 0L246.37 0Q244.16 1.28 241.28 1.28ZM269.50-3.52L269.50-3.52L269.50-3.52Q267.52 1.28 261.18 1.28L261.18 1.28L261.18 1.28Q257.92 1.28 255.87-0.96L255.87-0.96L255.87-0.96Q254.14-2.94 254.14-4.93L254.14-4.93L254.14-4.93Q254.14-10.11 256.51-20.22L256.51-20.22L258.88-32.64L271.87-33.92L267.97-13.70L267.97-13.70Q266.88-8.96 266.88-7.30L266.88-7.30L266.88-7.30Q266.88-3.65 269.50-3.52ZM260.03-41.54L260.03-41.54L260.03-41.54Q260.03-44.03 262.11-45.38L262.11-45.38L262.11-45.38Q264.19-46.72 267.20-46.72L267.20-46.72L267.20-46.72Q270.21-46.72 272.03-45.38L272.03-45.38L272.03-45.38Q273.86-44.03 273.86-41.54L273.86-41.54L273.86-41.54Q273.86-39.04 271.84-37.76L271.84-37.76L271.84-37.76Q269.82-36.48 266.82-36.48L266.82-36.48L266.82-36.48Q263.81-36.48 261.92-37.76L261.92-37.76L261.92-37.76Q260.03-39.04 260.03-41.54ZM302.02 1.28L302.02 1.28L302.02 1.28Q294.27 1.28 294.27-4.74L294.27-4.74L294.27-4.74Q294.34-6.40 294.85-9.22L294.85-9.22L296.00-15.10L296.00-15.10Q297.73-23.42 297.73-25.28L297.73-25.28L297.73-25.28Q297.73-28.99 295.55-28.99L295.55-28.99L295.55-28.99Q291.90-28.99 289.98-19.46L289.98-19.46L286.21 0L273.34 1.28L280.00-32.70L290.50-33.92L289.47-27.65L289.47-27.65Q292.48-33.92 301.70-33.92L301.70-33.92L301.70-33.92Q306.18-33.92 308.06-32.03L308.06-32.03L308.06-32.03Q309.95-30.14 309.95-25.92L309.95-25.92L309.95-25.92Q309.95-21.95 307.90-12.67L307.90-12.67L307.90-12.67Q306.94-8.51 306.94-6.94L306.94-6.94L306.94-6.94Q306.94-5.38 307.81-4.48L307.81-4.48L307.81-4.48Q308.67-3.58 309.95-3.46L309.95-3.46L309.95-3.46Q309.31-1.28 307.10 0L307.10 0L307.10 0Q304.90 1.28 302.02 1.28ZM335.23-33.92L335.23-33.92L335.23-33.92Q337.54-33.92 339.33-33.41L339.33-33.41L339.33-33.41Q339.39-33.66 339.52-34.37L339.52-34.37L339.84-36.35L339.84-36.35Q340.10-37.63 340.48-39.74L340.48-39.74L341.50-44.80L354.24-46.08L347.14-8.96L347.14-8.96Q347.07-8.58 347.07-7.94L347.07-7.94L347.07-6.91L347.07-6.91Q347.07-5.50 347.78-4.45L347.78-4.45L347.78-4.45Q348.48-3.39 349.63-3.39L349.63-3.39L349.63-3.39Q348.35-0.38 344.45 0.90L344.45 0.90L344.45 0.90Q343.10 1.28 341.22 1.28L341.22 1.28L341.22 1.28Q339.33 1.28 337.60 0.29L337.60 0.29L337.60 0.29Q335.87-0.70 335.36-2.37L335.36-2.37L335.36-2.37Q334.34-0.70 332.29 0.29L332.29 0.29L332.29 0.29Q330.24 1.28 327.26 1.28L327.26 1.28L327.26 1.28Q324.29 1.28 321.82 0.51L321.82 0.51L321.82 0.51Q319.36-0.26 317.82-1.92L317.82-1.92L317.82-1.92Q315.01-5.18 315.01-12.61L315.01-12.61L315.01-12.61Q315.01-22.21 320.64-28.03L320.64-28.03L320.64-28.03Q326.27-33.92 335.23-33.92ZM334.78-30.08L334.78-30.08L334.78-30.08Q332.42-30.08 331.14-27.52L331.14-27.52L331.14-27.52Q329.86-24.96 328.54-18.62L328.54-18.62L328.54-18.62Q327.23-12.29 327.23-6.59L327.23-6.59L327.23-6.59Q327.23-2.69 329.54-2.69L329.54-2.69L329.54-2.69Q331.58-2.69 333.02-4.74L333.02-4.74L333.02-4.74Q334.46-6.78 335.04-10.18L335.04-10.18L338.50-28.93L338.50-28.93Q337.15-30.08 334.78-30.08ZM380.99-10.82L380.99-10.82L380.99-10.82Q382.59-9.73 382.59-7.33L382.59-7.33L382.59-7.33Q382.59-4.93 381.38-3.39L381.38-3.39L381.38-3.39Q380.16-1.86 378.18-0.83L378.18-0.83L378.18-0.83Q374.08 1.28 369.66 1.28L369.66 1.28L369.66 1.28Q365.25 1.28 362.66 0.32L362.66 0.32L362.66 0.32Q360.06-0.64 358.34-2.43L358.34-2.43L358.34-2.43Q354.94-5.82 354.94-12.03L354.94-12.03L354.94-12.03Q354.94-21.70 360.19-27.58L360.19-27.58L360.19-27.58Q365.82-33.92 375.62-33.92L375.62-33.92L375.62-33.92Q381.70-33.92 384.70-31.36L384.70-31.36L384.70-31.36Q386.94-29.44 386.94-26.30L386.94-26.30L386.94-26.30Q386.94-15.04 367.49-15.04L367.49-15.04L367.49-15.04Q367.23-13.38 367.23-11.97L367.23-11.97L367.23-11.97Q367.23-9.02 368.54-7.90L368.54-7.90L368.54-7.90Q369.86-6.78 372.29-6.78L372.29-6.78L372.29-6.78Q374.72-6.78 377.31-7.90L377.31-7.90L377.31-7.90Q379.90-9.02 380.99-10.82ZM367.94-17.79L367.94-17.79L367.94-17.79Q372.48-17.79 375.10-20.61L375.10-20.61L375.10-20.61Q377.73-23.30 377.73-27.58L377.73-27.58L377.73-27.58Q377.73-29.06 377.18-29.86L377.18-29.86L377.18-29.86Q376.64-30.66 375.55-30.66L375.55-30.66L375.55-30.66Q374.46-30.66 373.54-30.24L373.54-30.24L373.54-30.24Q372.61-29.82 371.65-28.42L371.65-28.42L371.65-28.42Q369.28-25.22 367.94-17.79ZM409.15-17.98L409.15-17.98L409.15-17.98Q411.46-22.08 411.46-26.24L411.46-26.24L411.46-26.24Q411.46-28.99 409.47-28.99L409.47-28.99L409.47-28.99Q407.94-28.99 406.34-26.37L406.34-26.37L406.34-26.37Q404.67-23.74 404.16-20.35L404.16-20.35L400.83 0L387.58 1.28L394.11-32.64L404.67-33.92L403.52-27.46L403.52-27.46Q406.66-33.92 413.70-33.92L413.70-33.92L413.70-33.92Q417.41-33.92 419.42-32L419.42-32L419.42-32Q421.44-30.08 421.44-26.14L421.44-26.14L421.44-26.14Q421.44-22.21 418.85-19.71L418.85-19.71L418.85-19.71Q416.26-17.22 411.84-17.22L411.84-17.22L411.84-17.22Q409.92-17.22 409.15-17.98Z" fill="#ffd5af"></path></g></g><style>text {
  font-size: 64px;
  font-family: Arial Black;
  dominant-baseline: central;
  text-anchor: middle;
}</style></svg>