<?xml version="1.0" encoding="UTF-8" standalone="no"?>
<svg
   width="424.59003"
   height="51.400002"
   viewBox="-46.597705 14 424.59001 51.400002"
   preserveAspectRatio="xMidYMid"
   version="1.1"
   id="svg27"
   sodipodi:docname="Pill Reminder title.svg"
   inkscape:version="1.2.1 (9c6d41e410, 2022-07-14)"
   xmlns:inkscape="http://www.inkscape.org/namespaces/inkscape"
   xmlns:sodipodi="http://sodipodi.sourceforge.net/DTD/sodipodi-0.dtd"
   xmlns="http://www.w3.org/2000/svg"
   xmlns:svg="http://www.w3.org/2000/svg">
  <sodipodi:namedview
     id="namedview29"
     pagecolor="#ffffff"
     bordercolor="#666666"
     borderopacity="1.0"
     inkscape:showpageshadow="2"
     inkscape:pageopacity="0.0"
     inkscape:pagecheckerboard="0"
     inkscape:deskcolor="#d1d1d1"
     showgrid="false"
     inkscape:zoom="2.2420941"
     inkscape:cx="184.87181"
     inkscape:cy="24.753644"
     inkscape:window-width="1920"
     inkscape:window-height="1039"
     inkscape:window-x="0"
     inkscape:window-y="20"
     inkscape:window-maximized="1"
     inkscape:current-layer="svg27" />
  <defs
     id="defs17">
    <filter
       id="editing-hover"
       x="-0.004275636"
       y="-0.035416667"
       width="1.0085513"
       height="1.0708333">
      <feFlood
         flood-color="#303030"
         result="flood"
         id="feFlood2" />
      <feComposite
         operator="in"
         in2="SourceAlpha"
         in="flood"
         result="shadow"
         id="feComposite4" />
      <feOffset
         dx="-1.8"
         dy="-1.7"
         in="SourceGraphic"
         result="offset-1"
         id="feOffset6" />
      <feOffset
         dx="1.8"
         dy="1.7"
         in="shadow"
         result="offset-2"
         id="feOffset8" />
      <feMerge
         id="feMerge14">
        <feMergeNode
           in="offset-2"
           id="feMergeNode10" />
        <feMergeNode
           in="offset-1"
           id="feMergeNode12" />
      </feMerge>
    </filter>
  </defs>
  <g
     filter="url(#editing-hover)"
     id="g23"
     transform="translate(-84.39522,-36.58)">
    <g
       transform="translate(39.147515,99)"
       id="g21">
      <path
         d="m 26.11,-42.69 v 0 0 q 15.68,0 15.68,11.07 v 0 0 q 0,6.08 -3.9,9.73 v 0 0 q -3.84,3.65 -10.56,3.65 v 0 0 q -3.14,0 -5.57,-1.79 v 0 0 q -1.15,-0.77 -1.92,-1.79 v 0 0 q 4.67,0 7.14,-2.85 v 0 0 q 2.46,-2.85 2.46,-8.42 v 0 0 q 0,-5.57 -5.5,-5.57 v 0 H 22.4 v 0 q -0.38,0 -0.7,0.07 v 0 L 14.34,0 H 0.45 l 7.87,-41.92 v 0 q 6.85,-0.64 10.82,-0.7 v 0 0 q 3.96,-0.07 6.97,-0.07 z m 31.36,39.17 v 0 0 q -1.98,4.8 -8.32,4.8 v 0 0 q -3.26,0 -5.31,-2.24 v 0 0 q -1.73,-1.98 -1.73,-3.97 v 0 0 q 0,-5.18 2.37,-15.29 v 0 l 2.37,-12.42 12.99,-1.28 -3.9,20.22 v 0 q -1.09,4.74 -1.09,6.4 v 0 0 q 0,3.65 2.62,3.78 z M 48,-41.54 v 0 0 q 0,-2.49 2.08,-3.84 v 0 0 q 2.08,-1.34 5.09,-1.34 v 0 0 q 3.01,0 4.83,1.34 v 0 0 q 1.82,1.35 1.82,3.84 v 0 0 q 0,2.5 -2.01,3.78 v 0 0 q -2.02,1.28 -5.03,1.28 v 0 0 q -3,0 -4.89,-1.28 v 0 0 Q 48,-39.04 48,-41.54 Z m 30.21,38.02 v 0 0 q -1.99,4.8 -8.32,4.8 v 0 0 q -3.2,0 -5.25,-2.24 v 0 0 q -1.66,-1.86 -1.66,-3.97 v 0 0 q 0,-4.8 2.24,-15.29 v 0 l 4.67,-24.58 12.99,-1.28 -6.21,32.38 v 0 q -1.09,4.74 -1.09,6.4 v 0 0 q 0,3.65 2.63,3.78 z m 20.73,0 v 0 0 q -1.98,4.8 -8.32,4.8 v 0 0 q -3.2,0 -5.24,-2.24 v 0 0 q -1.67,-1.86 -1.67,-3.97 v 0 0 q 0,-4.8 2.24,-15.29 v 0 l 4.67,-24.58 13,-1.28 -6.21,32.38 v 0 q -1.09,4.74 -1.09,6.4 v 0 0 q 0,3.65 2.62,3.78 z M 130.69,0 h -13.7 l 7.81,-42.05 v 0 q 6.34,-0.7 15.58,-0.7 v 0 0 q 9.25,0 13.54,2.69 v 0 0 q 4.29,2.68 4.29,8.09 v 0 0 q 0,5.41 -2.79,8.8 v 0 0 q -2.78,3.39 -7.58,4.48 v 0 0 q 1.09,5.31 3.58,9.6 v 0 0 q 2.31,4.03 5,5.31 v 0 0 q -0.96,2.69 -2.92,3.88 v 0 0 q -1.95,1.18 -4.73,1.18 v 0 0 q -2.79,0 -4.96,-1.63 v 0 0 q -2.18,-1.63 -3.91,-4.64 v 0 0 q -3.64,-6.53 -4.03,-16.83 v 0 h 0.45 v 0 q 4.74,-0.13 7.1,-2.6 v 0 0 q 2.37,-2.46 2.37,-7.64 v 0 0 q 0,-6.47 -5.44,-6.72 v 0 h -1.41 v 0 q -0.57,0 -0.89,0.06 v 0 z m 56.38,-10.82 v 0 0 q 1.6,1.09 1.6,3.49 v 0 0 q 0,2.4 -1.21,3.94 v 0 0 q -1.22,1.53 -3.2,2.56 v 0 0 q -4.1,2.11 -8.52,2.11 v 0 0 q -4.41,0 -7,-0.96 v 0 0 q -2.6,-0.96 -4.32,-2.75 v 0 0 q -3.4,-3.39 -3.4,-9.6 v 0 0 q 0,-9.67 5.25,-15.55 v 0 0 q 5.63,-6.34 15.43,-6.34 v 0 0 q 6.08,0 9.08,2.56 v 0 0 q 2.24,1.92 2.24,5.06 v 0 0 q 0,11.26 -19.45,11.26 v 0 0 q -0.26,1.66 -0.26,3.07 v 0 0 q 0,2.95 1.31,4.07 v 0 0 q 1.32,1.12 3.75,1.12 v 0 0 q 2.43,0 5.02,-1.12 v 0 0 q 2.59,-1.12 3.68,-2.92 z m -13.05,-6.97 v 0 0 q 4.54,0 7.16,-2.82 v 0 0 q 2.63,-2.69 2.63,-6.97 v 0 0 q 0,-1.48 -0.55,-2.28 v 0 0 q -0.54,-0.8 -1.63,-0.8 v 0 0 q -1.09,0 -2.01,0.42 v 0 0 q -0.93,0.42 -1.89,1.82 v 0 0 q -2.37,3.2 -3.71,10.63 z m 67.26,19.07 v 0 0 q -7.74,0 -7.74,-6.02 v 0 0 q 0,-2.62 1.12,-7.71 v 0 0 q 1.12,-5.09 1.5,-7.13 v 0 0 q 0.9,-4.68 0.9,-6.15 v 0 0 q 0,-3.26 -2.44,-3.26 v 0 0 q -1.6,0 -3.13,2.21 v 0 0 q -1.54,2.2 -2.24,6.62 v 0 L 225.28,0 212.8,1.28 l 3.46,-17.41 v 0 q 0.57,-2.88 1.08,-6.14 v 0 0 q 0.52,-3.27 0.52,-3.78 v 0 0 q 0,-2.94 -2.18,-2.94 v 0 0 q -1.47,0 -3.07,2.17 v 0 0 q -1.6,2.18 -2.5,6.66 v 0 L 206.21,0 193.6,1.28 l 6.72,-33.92 10.43,-1.28 -1.09,6.46 v 0 q 1.67,-3.45 4.74,-4.96 v 0 0 q 3.07,-1.5 7.87,-1.5 v 0 0 q 2.75,0 4.55,1.34 v 0 0 q 1.79,1.35 2.36,3.52 v 0 0 q 1.09,-2.24 3.88,-3.55 v 0 0 q 2.78,-1.31 6.2,-1.31 v 0 0 q 3.43,0 5.12,0.74 v 0 0 q 1.7,0.73 2.72,1.95 v 0 0 q 1.73,2.24 1.73,6.33 v 0 0 q 0,4.04 -1.73,12.42 v 0 0 q -0.89,4.1 -0.89,5.6 v 0 0 q 0,1.5 0.86,2.4 v 0 0 q 0.87,0.9 2.15,1.02 v 0 0 q -0.64,2.18 -2.85,3.46 v 0 0 q -2.21,1.28 -5.09,1.28 z m 28.22,-4.8 v 0 0 q -1.98,4.8 -8.32,4.8 v 0 0 q -3.26,0 -5.31,-2.24 v 0 0 q -1.73,-1.98 -1.73,-3.97 v 0 0 q 0,-5.18 2.37,-15.29 v 0 l 2.37,-12.42 12.99,-1.28 -3.9,20.22 v 0 q -1.09,4.74 -1.09,6.4 v 0 0 q 0,3.65 2.62,3.78 z m -9.47,-38.02 v 0 0 q 0,-2.49 2.08,-3.84 v 0 0 q 2.08,-1.34 5.09,-1.34 v 0 0 q 3.01,0 4.83,1.34 v 0 0 q 1.83,1.35 1.83,3.84 v 0 0 q 0,2.5 -2.02,3.78 v 0 0 q -2.02,1.28 -5.02,1.28 v 0 0 q -3.01,0 -4.9,-1.28 v 0 0 q -1.89,-1.28 -1.89,-3.78 z m 41.99,42.82 v 0 0 q -7.75,0 -7.75,-6.02 v 0 0 q 0.07,-1.66 0.58,-4.48 v 0 L 296,-15.1 v 0 q 1.73,-8.32 1.73,-10.18 v 0 0 q 0,-3.71 -2.18,-3.71 v 0 0 q -3.65,0 -5.57,9.53 v 0 L 286.21,0 273.34,1.28 280,-32.7 l 10.5,-1.22 -1.03,6.27 v 0 q 3.01,-6.27 12.23,-6.27 v 0 0 q 4.48,0 6.36,1.89 v 0 0 q 1.89,1.89 1.89,6.11 v 0 0 q 0,3.97 -2.05,13.25 v 0 0 q -0.96,4.16 -0.96,5.73 v 0 0 q 0,1.56 0.87,2.46 v 0 0 q 0.86,0.9 2.14,1.02 v 0 0 Q 309.31,-1.28 307.1,0 v 0 0 q -2.2,1.28 -5.08,1.28 z m 33.21,-35.2 v 0 0 q 2.31,0 4.1,0.51 v 0 0 q 0.06,-0.25 0.19,-0.96 v 0 l 0.32,-1.98 v 0 q 0.26,-1.28 0.64,-3.39 v 0 l 1.02,-5.06 12.74,-1.28 -7.1,37.12 v 0 q -0.07,0.38 -0.07,1.02 v 0 1.03 0 q 0,1.41 0.71,2.46 v 0 0 q 0.7,1.06 1.85,1.06 v 0 0 q -1.28,3.01 -5.18,4.29 v 0 0 q -1.35,0.38 -3.23,0.38 v 0 0 q -1.89,0 -3.62,-0.99 v 0 0 q -1.73,-0.99 -2.24,-2.66 v 0 0 q -1.02,1.67 -3.07,2.66 v 0 0 q -2.05,0.99 -5.03,0.99 v 0 0 q -2.97,0 -5.44,-0.77 v 0 0 q -2.46,-0.77 -4,-2.43 v 0 0 q -2.81,-3.26 -2.81,-10.69 v 0 0 q 0,-9.6 5.63,-15.42 v 0 0 q 5.63,-5.89 14.59,-5.89 z m -0.45,3.84 v 0 0 q -2.36,0 -3.64,2.56 v 0 0 q -1.28,2.56 -2.6,8.9 v 0 0 q -1.31,6.33 -1.31,12.03 v 0 0 q 0,3.9 2.31,3.9 v 0 0 q 2.04,0 3.48,-2.05 v 0 0 q 1.44,-2.04 2.02,-5.44 v 0 l 3.46,-18.75 v 0 q -1.35,-1.15 -3.72,-1.15 z m 46.21,19.26 v 0 0 q 1.6,1.09 1.6,3.49 v 0 0 q 0,2.4 -1.21,3.94 v 0 0 q -1.22,1.53 -3.2,2.56 v 0 0 q -4.1,2.11 -8.52,2.11 v 0 0 q -4.41,0 -7,-0.96 v 0 0 q -2.6,-0.96 -4.32,-2.75 v 0 0 q -3.4,-3.39 -3.4,-9.6 v 0 0 q 0,-9.67 5.25,-15.55 v 0 0 q 5.63,-6.34 15.43,-6.34 v 0 0 q 6.08,0 9.08,2.56 v 0 0 q 2.24,1.92 2.24,5.06 v 0 0 q 0,11.26 -19.45,11.26 v 0 0 q -0.26,1.66 -0.26,3.07 v 0 0 q 0,2.95 1.31,4.07 v 0 0 q 1.32,1.12 3.75,1.12 v 0 0 q 2.43,0 5.02,-1.12 v 0 0 q 2.59,-1.12 3.68,-2.92 z m -13.05,-6.97 v 0 0 q 4.54,0 7.16,-2.82 v 0 0 q 2.63,-2.69 2.63,-6.97 v 0 0 q 0,-1.48 -0.55,-2.28 v 0 0 q -0.54,-0.8 -1.63,-0.8 v 0 0 q -1.09,0 -2.01,0.42 v 0 0 q -0.93,0.42 -1.89,1.82 v 0 0 q -2.37,3.2 -3.71,10.63 z m 41.21,-0.19 v 0 0 q 2.31,-4.1 2.31,-8.26 v 0 0 q 0,-2.75 -1.99,-2.75 v 0 0 q -1.53,0 -3.13,2.62 v 0 0 q -1.67,2.63 -2.18,6.02 v 0 L 400.83,0 l -13.25,1.28 6.53,-33.92 10.56,-1.28 -1.15,6.46 v 0 q 3.14,-6.46 10.18,-6.46 v 0 0 q 3.71,0 5.72,1.92 v 0 0 q 2.02,1.92 2.02,5.86 v 0 0 q 0,3.93 -2.59,6.43 v 0 0 q -2.59,2.49 -7.01,2.49 v 0 0 q -1.92,0 -2.69,-0.76 z"
         fill="#ffd5af"
         id="path19" />
    </g>
  </g>
  <style
     id="style25">text {
  font-size: 64px;
  font-family: Arial Black;
  dominant-baseline: central;
  text-anchor: middle;
}</style>
</svg>
