<?xml version="1.0" encoding="UTF-8" standalone="no"?>
<!-- Created with Inkscape (http://www.inkscape.org/) -->

<svg
   width="35.783142mm"
   height="35.783142mm"
   viewBox="0 0 35.783142 35.783142"
   version="1.1"
   id="svg5"
   xml:space="preserve"
   inkscape:version="1.2.1 (9c6d41e410, 2022-07-14)"
   sodipodi:docname="icon.svg"
   xmlns:inkscape="http://www.inkscape.org/namespaces/inkscape"
   xmlns:sodipodi="http://sodipodi.sourceforge.net/DTD/sodipodi-0.dtd"
   xmlns="http://www.w3.org/2000/svg"
   xmlns:svg="http://www.w3.org/2000/svg"><sodipodi:namedview
     id="namedview7"
     pagecolor="#ffffff"
     bordercolor="#666666"
     borderopacity="1.0"
     inkscape:showpageshadow="2"
     inkscape:pageopacity="0.0"
     inkscape:pagecheckerboard="0"
     inkscape:deskcolor="#d1d1d1"
     inkscape:document-units="mm"
     showgrid="false"
     inkscape:zoom="2.2123078"
     inkscape:cx="50.173851"
     inkscape:cy="3.8421417"
     inkscape:window-width="1920"
     inkscape:window-height="1039"
     inkscape:window-x="0"
     inkscape:window-y="20"
     inkscape:window-maximized="1"
     inkscape:current-layer="layer1" /><defs
     id="defs2"><filter
       id="editing-hover"
       x="-0.043541364"
       y="-0.039821972"
       width="1.0870827"
       height="1.0796439"><feFlood
         flood-color="#303030"
         result="flood"
         id="feFlood2" /><feComposite
         operator="in"
         in2="SourceAlpha"
         in="flood"
         result="shadow"
         id="feComposite4" /><feOffset
         dx="-1.8"
         dy="-1.7"
         in="SourceGraphic"
         result="offset-1"
         id="feOffset6" /><feOffset
         dx="1.8"
         dy="1.7"
         in="shadow"
         result="offset-2"
         id="feOffset8" /><feMerge
         id="feMerge14"><feMergeNode
           in="offset-2"
           id="feMergeNode10" /><feMergeNode
           in="offset-1"
           id="feMergeNode12" /></feMerge></filter></defs><g
     inkscape:label="Capa 1"
     inkscape:groupmode="layer"
     id="layer1"
     transform="translate(-29.489132,-102.9556)"><rect
       style="fill:#596886;fill-opacity:1;stroke-width:0.268865;stroke-linecap:round;stroke-linejoin:round;stop-color:#000000"
       id="rect466"
       width="35.783142"
       height="35.783142"
       x="29.489132"
       y="102.9556"
       ry="2.8032892" /><path
       d="m -19.137705,19.73 v 0 0 c 10.4533333,0 15.68,3.69 15.68,11.07 v 0 0 c 0,4.053333 -1.3,7.296667 -3.9,9.73 v 0 0 c -2.56,2.433333 -6.08,3.65 -10.56,3.65 v 0 0 c -2.093333,0 -3.95,-0.596667 -5.57,-1.79 v 0 0 c -0.766667,-0.513333 -1.406667,-1.11 -1.92,-1.79 v 0 0 c 3.113333,0 5.493333,-0.95 7.14,-2.85 v 0 0 c 1.64,-1.9 2.46,-4.706667 2.46,-8.42 v 0 0 c 0,-3.713333 -1.833333,-5.57 -5.5,-5.57 v 0 h -1.54 v 0 c -0.253333,0 -0.486667,0.02333 -0.7,0.07 v 0 l -7.36,38.59 h -13.89 l 7.87,-41.92 v 0 c 4.566667,-0.426667 8.173333,-0.66 10.82,-0.7 v 0 0 c 2.64,-0.04667 4.963333,-0.07 6.97,-0.07 z"
       fill="#ffd5af"
       id="path19"
       style="filter:url(#editing-hover)"
       transform="matrix(0.64126061,0,0,0.64126061,62.85285,94.507395)"
       sodipodi:nodetypes="scsscsscsscsscsscsscsscssccssccccsscss" /></g><style
     id="style25">text {
  font-size: 64px;
  font-family: Arial Black;
  dominant-baseline: central;
  text-anchor: middle;
}</style></svg>
